<?xml version="1.0" encoding="utf-8"?>
<!-- Generator: Adobe Illustrator 25.2.0, SVG Export Plug-In . SVG Version: 6.00 Build 0)  -->
<svg version="1.1" id="Livello_1" xmlns="http://www.w3.org/2000/svg" xmlns:xlink="http://www.w3.org/1999/xlink" x="0px" y="0px"
	 viewBox="0 0 30 30" style="enable-background:new 0 0 30 30;" xml:space="preserve">
<style type="text/css">
	.st0{fill:#1F1F1F;}
</style>
<g id="Group_6" transform="translate(-237.6 -7.7)">
	<g id="Group_3">
		<g id="Group_2">
			<path id="Path_2" class="st0" d="M261.3,18.1c-6.9,0-6.9,6.9-6.9,6.9s-0.4,6.9,6.9,6.9c0,0,5.5,0.4,6.1-4c0-0.3-0.2-0.7-0.5-0.7
				h-0.1h-1.9c-0.3,0-0.5,0.2-0.6,0.4c-0.2,0.5-0.8,1.5-2.8,1.5c-1.5,0.1-2.8-0.9-3.1-2.4c0-0.3,0.2-0.7,0.5-0.7h0.1h8
				c0.3,0,0.6-0.3,0.6-0.6l0,0C267.7,23.4,267.3,18.1,261.3,18.1z M258.7,23.5c-0.2,0-0.4-0.2-0.4-0.4V23c0.3-1.4,1.6-2.3,3-2.3
				c1.4-0.1,2.6,1,2.7,2.4c0,0.2-0.1,0.4-0.4,0.4H258.7z M250.4,21.9c-0.3-0.1-0.3-0.4-0.1-0.5c1.1-0.6,1.8-1.8,1.7-3.1
				c0-3.2-2.2-4.7-5.1-4.7H238c-0.2,0-0.4,0.2-0.4,0.4c0,0,0,0,0,0.1v17c0,0.2,0.2,0.4,0.4,0.4c0,0,0,0,0.1,0h8.9
				c0,0,5.7,0.2,5.7-5.3C252.7,26.2,252.9,22.7,250.4,21.9L250.4,21.9z M241.8,17.1c0-0.2,0.2-0.3,0.4-0.4h4.8c0,0,1.2,0,1.2,1.8
				s-0.7,2.1-1.6,2.1H242c-0.2,0-0.3-0.2-0.4-0.4L241.8,17.1L241.8,17.1z M246.7,28.3h-4.6c-0.2,0-0.3-0.2-0.4-0.4v-4.1
				c0-0.2,0.2-0.3,0.4-0.4h4.8c0,0,1.9,0,1.8,2.5C248.9,28.1,247.5,28.3,246.7,28.3z M257.5,14.3v1.5c0,0.2,0.2,0.3,0.4,0.4h6.7
				c0.2,0,0.3-0.2,0.4-0.4v-1.5c0-0.2-0.2-0.3-0.4-0.4h-6.7C257.6,14,257.5,14.1,257.5,14.3z"/>
		</g>
	</g>
</g>
</svg>
