<?xml version="1.0" encoding="utf-8"?>
<!-- Generator: Adobe Illustrator 24.0.0, SVG Export Plug-In . SVG Version: 6.00 Build 0)  -->
<svg version="1.1" id="Livello_1" xmlns="http://www.w3.org/2000/svg" xmlns:xlink="http://www.w3.org/1999/xlink" x="0px" y="0px"
	 viewBox="0 0 30 30" style="enable-background:new 0 0 30 30;" xml:space="preserve">
<style type="text/css">
	.st0{fill:#DEE0DA;}
</style>
<g id="email" transform="translate(0 -61)">
	<g id="Group_7" transform="translate(0 61)">
		<path id="Path_3" class="st0" d="M25.3,5.5H4.7c-1.2,0-2.2,1-2.2,2.2v14.6c0,1.2,1,2.2,2.2,2.2h20.6c1.2,0,2.2-1,2.2-2.2V7.7
			C27.5,6.5,26.5,5.5,25.3,5.5z M25,6.9l-9.9,10L5,6.9H25z M4,22V8l7.1,7L4,22z M5,23.1l7.1-7.1l2.5,2.5c0.3,0.3,0.7,0.3,1,0L18,16
			l7,7L5,23.1z M26,22l-7-7l7-7L26,22z"/>
	</g>
</g>
</svg>
