<?xml version="1.0" encoding="utf-8"?>
<!-- Generator: Adobe Illustrator 25.2.0, SVG Export Plug-In . SVG Version: 6.00 Build 0)  -->
<svg version="1.1" id="Group_5" xmlns="http://www.w3.org/2000/svg" xmlns:xlink="http://www.w3.org/1999/xlink" x="0px" y="0px"
	 viewBox="0 0 30 30" style="enable-background:new 0 0 30 30;" xml:space="preserve">
<style type="text/css">
	.st0{fill:#1F1F1F;}
</style>
<g id="Group_1">
	<path id="Path_1" class="st0" d="M21.6,7.1c-0.8,0-1.4,0.6-1.5,1.4c0,0,0,0,0,0.1c0,0.8,0.7,1.5,1.5,1.5s1.5-0.7,1.5-1.5
		C23,7.8,22.4,7.1,21.6,7.1L21.6,7.1z M15.1,9C11.7,9,9,11.8,9,15.1s2.8,6.1,6.1,6.1s6.1-2.8,6.1-6.1l0,0C21.2,11.7,18.5,9,15.1,9z
		 M15.1,19.1c-2.2,0-4-1.8-4-4s1.8-4,4-4s4,1.8,4,4C19,17.3,17.3,19.1,15.1,19.1z M27.5,10c0-4.1-3.3-7.5-7.5-7.5c0,0,0,0-0.1,0H10
		c-4.1,0-7.5,3.3-7.5,7.5c0,0,0,0,0,0.1V20c0,4.1,3.3,7.5,7.5,7.5c0,0,0,0,0.1,0H20c4.1,0,7.5-3.3,7.5-7.5c0,0,0,0,0-0.1V10z
		 M25.1,20c0,2.8-2.3,5.2-5.1,5.2l0,0H10c-2.8,0-5.2-2.3-5.2-5.1l0,0V10c0-2.8,2.3-5.2,5.1-5.2l0,0H20c2.8,0,5.2,2.3,5.2,5.1l0,0V20
		H25.1z"/>
</g>
</svg>
