<?xml version="1.0" encoding="utf-8"?>
<!-- Generator: Adobe Illustrator 24.0.0, SVG Export Plug-In . SVG Version: 6.00 Build 0)  -->
<svg version="1.1" id="Group_5" xmlns="http://www.w3.org/2000/svg" xmlns:xlink="http://www.w3.org/1999/xlink" x="0px" y="0px"
	 viewBox="0 0 30 30" style="enable-background:new 0 0 30 30;" xml:space="preserve">
<style type="text/css">
	.st0{fill:#DEE0DA;}
</style>
<g id="Group_1">
	<path id="Path_1" class="st0" d="M21.6,7.1c-0.8,0-1.4,0.6-1.5,1.4c0,0,0,0,0,0.1c0,0.8,0.7,1.5,1.5,1.5c0.8,0,1.5-0.7,1.5-1.5
		C23,7.8,22.4,7.1,21.6,7.1C21.6,7.1,21.6,7.1,21.6,7.1z M15.1,9c-3.4,0-6.1,2.8-6.1,6.1s2.8,6.1,6.1,6.1s6.1-2.8,6.1-6.1l0,0
		C21.2,11.7,18.5,9,15.1,9z M15.1,19.1c-2.2,0-4-1.8-4-4c0-2.2,1.8-4,4-4c2.2,0,4,1.8,4,4C19,17.3,17.3,19.1,15.1,19.1z M27.5,10
		c0-4.1-3.3-7.5-7.5-7.5c0,0,0,0-0.1,0H10c-4.1,0-7.5,3.3-7.5,7.5c0,0,0,0,0,0.1V20c0,4.1,3.3,7.5,7.5,7.5c0,0,0,0,0.1,0H20
		c4.1,0,7.5-3.3,7.5-7.5c0,0,0,0,0-0.1V10z M25.1,20c0,2.8-2.3,5.2-5.1,5.2c0,0,0,0,0,0H10c-2.8,0-5.2-2.3-5.2-5.1c0,0,0,0,0,0V10
		c0-2.8,2.3-5.2,5.1-5.2c0,0,0,0,0,0H20c2.8,0,5.2,2.3,5.2,5.1c0,0,0,0,0,0V20z"/>
</g>
</svg>
