<?xml version="1.0" encoding="utf-8"?>
<!-- Generator: Adobe Illustrator 24.0.0, SVG Export Plug-In . SVG Version: 6.00 Build 0)  -->
<svg version="1.1" id="Livello_1" xmlns="http://www.w3.org/2000/svg" xmlns:xlink="http://www.w3.org/1999/xlink" x="0px" y="0px"
	 viewBox="0 0 30 30" style="enable-background:new 0 0 30 30;" xml:space="preserve">
<style type="text/css">
	.st0{fill:#DEE0DA;}
</style>
<path id="vimeo" class="st0" d="M23.9,4.1c-3.5-0.1-5.8,1.9-7,5.9c0.6-0.3,1.2-0.4,1.9-0.4c1.3,0,1.8,0.7,1.7,2.2
	c-0.3,1.4-0.9,2.7-1.7,3.8c-1.1,1.7-1.8,2.5-2.4,2.5c-1.6,0-2.5-7.6-2.9-9.7c-0.4-2.9-1.6-4.2-3.6-4C8.1,4.6,4.9,7.8,2.5,9.9
	l1.2,1.5c0.6-0.5,1.3-0.9,2-1.2c1.9,0,2.9,6.6,4.4,11.6c1,2.7,2.2,4.1,3.7,4.1c2.4,0,5.2-2.2,8.6-6.7c3.3-4.3,5-7.6,5.1-10.1l0,0
	C27.6,5.8,26.4,4.1,23.9,4.1z"/>
</svg>
